<svg width="16" height="13" viewBox="0 0 16 13" fill="none" xmlns="http://www.w3.org/2000/svg">
<rect y="0.303711" width="16" height="12.6382" fill="#1C1C1C"/>
<path d="M0.353882 0.973969L0.428971 12.2464V12.5207H2.89616C3.09103 12.5207 3.06667 12.4669 3.06667 12.3462V5.06428C3.06667 4.68522 3.28943 4.73609 3.43206 4.91465L10.2038 12.5457C11.032 12.5291 12.7384 12.5367 12.9917 12.5167C13.245 12.4968 13.2313 12.1926 13.1512 12.0968L3.11539 0.75H0.898732C0.625913 0.75 0.353896 0.874219 0.353882 0.973969Z" fill="white"/>
<path d="M4.6012 0.744389L14.9861 12.5464H15.7304V9.3484L10.4706 3.43473C10.3118 3.13016 10.5202 3.07094 10.6443 3.0794H14.5147C14.6735 3.0794 14.7132 2.94403 14.7132 2.87635V0.744389C14.7132 0.561648 14.614 0.532884 14.5643 0.541344L4.70044 0.541344C4.52181 0.541344 4.55985 0.676707 4.6012 0.744389Z" fill="url(#paint0_linear_1544_5)"/>
<path d="M4.6012 0.744389L14.9861 12.5464H15.7304V9.3484L10.4706 3.43473C10.3118 3.13016 10.5202 3.07094 10.6443 3.0794H14.5147C14.6735 3.0794 14.7132 2.94403 14.7132 2.87635V0.744389C14.7132 0.561648 14.614 0.532884 14.5643 0.541344L4.70044 0.541344C4.52181 0.541344 4.55985 0.676707 4.6012 0.744389Z" fill="url(#paint1_linear_1544_5)"/>
<defs>
<linearGradient id="paint0_linear_1544_5" x1="10.1485" y1="0.540039" x2="10.1485" y2="12.5464" gradientUnits="userSpaceOnUse">
<stop stop-color="#FF0066"/>
<stop offset="1" stop-color="#9061D1"/>
</linearGradient>
<linearGradient id="paint1_linear_1544_5" x1="5.51452" y1="0.224083" x2="16.0814" y2="12.5162" gradientUnits="userSpaceOnUse">
<stop stop-opacity="0"/>
<stop offset="1"/>
</linearGradient>
</defs>
</svg>
