<svg width="270" height="211" viewBox="0 0 270 211" fill="none" xmlns="http://www.w3.org/2000/svg">
<path d="M0 7.62803L1.31851 205.564V210.38H44.6404C48.0622 210.38 47.6345 209.434 47.6345 207.315V79.4506C47.6345 72.7947 51.5458 73.6879 54.0503 76.8233L172.957 210.818C187.5 210.526 217.462 210.661 221.91 210.31C226.359 209.96 226.117 204.618 224.712 202.936L48.4899 3.69531H9.56714C4.77665 3.69531 0.00025343 5.8765 0 7.62803Z" fill="white"/>
<path d="M74.5798 3.58822L256.931 210.822H270V154.668L177.642 50.8284C174.854 45.4805 178.513 44.4406 180.692 44.5891H248.653C251.441 44.5891 252.138 42.2123 252.138 41.0238V3.58822C252.138 0.379444 250.396 -0.125641 249.525 0.0229133H76.3224C73.1857 0.0229133 73.8537 2.39978 74.5798 3.58822Z" fill="url(#paint0_linear_1271_48)"/>
<path d="M74.5798 3.58822L256.931 210.822H270V154.668L177.642 50.8284C174.854 45.4805 178.513 44.4406 180.692 44.5891H248.653C251.441 44.5891 252.138 42.2123 252.138 41.0238V3.58822C252.138 0.379444 250.396 -0.125641 249.525 0.0229133H76.3224C73.1857 0.0229133 73.8537 2.39978 74.5798 3.58822Z" fill="url(#paint1_linear_1271_48)"/>
<defs>
<linearGradient id="paint0_linear_1271_48" x1="171.987" y1="0" x2="171.987" y2="210.822" gradientUnits="userSpaceOnUse">
<stop stop-color="#FF0066"/>
<stop offset="1" stop-color="#9061D1"/>
</linearGradient>
<linearGradient id="paint1_linear_1271_48" x1="90.6169" y1="-5.54793" x2="276.163" y2="210.292" gradientUnits="userSpaceOnUse">
<stop stop-opacity="0"/>
<stop offset="1"/>
</linearGradient>
</defs>
</svg>
